<svg version="1.1" xmlns="http://www.w3.org/2000/svg" xmlns:xlink="http://www.w3.org/1999/xlink" x="0px" y="0px"
	 viewBox="0 0 100 100" style="enable-background:new 0 0 100 100;" xml:space="preserve">
<g id="Vrstva_40">
	<g>
		<g>
			<g>
				<path d="M63.828,58.735c-0.384,0-0.767-0.146-1.06-0.439c-0.586-0.586-0.586-1.535,0-2.121
					c3.498-3.498,5.425-8.148,5.425-13.096c0-4.947-1.927-9.598-5.425-13.096c-0.586-0.586-0.586-1.535,0-2.121
					c0.586-0.586,1.535-0.586,2.121,0c4.064,4.064,6.304,9.469,6.304,15.217c0,5.748-2.239,11.152-6.304,15.217
					C64.596,58.588,64.212,58.735,63.828,58.735z"/>
			</g>
			<g>
				<path d="M72.043,66.949c-0.384,0-0.768-0.146-1.061-0.439c-0.586-0.586-0.586-1.535,0-2.121c11.75-11.75,11.75-30.869,0-42.62
					c-0.586-0.586-0.586-1.535,0-2.121c0.586-0.586,1.535-0.586,2.121,0c12.92,12.921,12.92,33.943,0,46.862
					C72.811,66.802,72.427,66.949,72.043,66.949z"/>
			</g>
			<g>
				<path d="M80.432,75.337c-0.384,0-0.768-0.146-1.061-0.439c-0.586-0.586-0.586-1.535,0-2.121
					c16.375-16.376,16.375-43.021,0-59.397c-0.586-0.586-0.586-1.535,0-2.121c0.586-0.586,1.535-0.586,2.121,0
					c17.545,17.546,17.545,46.095,0,63.64C81.199,75.191,80.815,75.337,80.432,75.337z"/>
			</g>
		</g>
		<g>
			<g>
				<path d="M36.172,58.735c-0.384,0-0.768-0.146-1.061-0.439c-4.064-4.065-6.304-9.469-6.304-15.217
					c0-5.748,2.239-11.152,6.304-15.217c0.586-0.586,1.535-0.586,2.121,0c0.586,0.586,0.586,1.535,0,2.121
					c-3.498,3.498-5.425,8.148-5.425,13.096c0,4.947,1.927,9.598,5.425,13.096c0.586,0.586,0.586,1.535,0,2.121
					C36.939,58.588,36.556,58.735,36.172,58.735z"/>
			</g>
			<g>
				<path d="M27.957,66.949c-0.384,0-0.768-0.146-1.061-0.439c-12.92-12.919-12.92-33.941,0-46.862c0.586-0.586,1.535-0.586,2.121,0
					c0.586,0.586,0.586,1.535,0,2.121c-11.75,11.751-11.75,30.87,0,42.62c0.586,0.586,0.586,1.535,0,2.121
					C28.725,66.802,28.341,66.949,27.957,66.949z"/>
			</g>
			<g>
				<path d="M19.568,75.337c-0.384,0-0.768-0.146-1.061-0.439c-17.545-17.545-17.545-46.094,0-63.64
					c0.586-0.586,1.535-0.586,2.121,0c0.586,0.586,0.586,1.535,0,2.121c-16.375,16.376-16.375,43.021,0,59.397
					c0.586,0.586,0.586,1.535,0,2.121C20.336,75.191,19.952,75.337,19.568,75.337z"/>
			</g>
		</g>
		<g>
			<path d="M50.438,53.775c-5.565,0-10.094-4.528-10.094-10.094s4.528-10.094,10.094-10.094s10.094,4.528,10.094,10.094
				S56.004,53.775,50.438,53.775z M50.438,36.587c-3.911,0-7.094,3.183-7.094,7.094s3.183,7.094,7.094,7.094
				s7.094-3.183,7.094-7.094S54.35,36.587,50.438,36.587z"/>
		</g>
		<g>
			<path d="M50.659,89.181c-0.828,0-1.5-0.672-1.5-1.5v-27c0-0.828,0.672-1.5,1.5-1.5c0.828,0,1.5,0.672,1.5,1.5v27
				C52.159,88.509,51.487,89.181,50.659,89.181z"/>
		</g>
	</g>
</g>
<script  type="text/javascript">
    <![CDATA[
         var c=window.location.search.split('color=')[1]; c=parseInt(c,16); if(!isNaN(c)){c=c.toString(16);var p=document.getElementsByTagName('path');for(var i=0,l=p.length;i<l;i++){var s=p[i].style;s.fill='#'+c;} var p2=document.getElementsByTagName('polygon');for(var i=0,l=p2.length;i<l;i++){var s=p2[i].style;s.fill='#'+c;} var p3=document.getElementsByTagName('circle');for(var i=0,l=p3.length;i<l;i++){var s=p3[i].style;s.fill='#'+c;} }
        ]]>
</script>
</svg>
