<svg version="1.1" xmlns="http://www.w3.org/2000/svg" xmlns:xlink="http://www.w3.org/1999/xlink" x="0px" y="0px"
	 viewBox="0 0 100 100" style="enable-background:new 0 0 100 100;" xml:space="preserve">
<g id="Vrstva_239">
	<g>
		<g>
			<path style="fill:#020000;" d="M89,81.5H11c-0.513,0-0.99-0.262-1.265-0.694c-0.275-0.433-0.311-0.976-0.094-1.44L16.5,64.667
				V37.5c0-0.829,0.671-1.5,1.5-1.5c0.829,0,1.5,0.671,1.5,1.5V65c0,0.219-0.048,0.436-0.141,0.635L13.356,78.5h73.289
				l-6.004-12.865C80.548,65.436,80.5,65.219,80.5,65V37.5c0-0.829,0.671-1.5,1.5-1.5c0.829,0,1.5,0.671,1.5,1.5v27.167
				l6.859,14.698c0.217,0.465,0.181,1.008-0.094,1.44C89.99,81.238,89.513,81.5,89,81.5z"/>
		</g>
		<g>
			<path style="fill:#020000;" d="M82,38.5c-0.829,0-1.5-0.671-1.5-1.5C80.5,20.182,66.818,6.5,50,6.5S19.5,20.182,19.5,37
				c0,0.829-0.671,1.5-1.5,1.5c-0.829,0-1.5-0.671-1.5-1.5C16.5,18.528,31.528,3.5,50,3.5S83.5,18.528,83.5,37
				C83.5,37.829,82.829,38.5,82,38.5z"/>
		</g>
		<g>
			<path style="fill:#020000;" d="M30.223,36.889c-0.829,0-1.5-0.671-1.5-1.5c0-11.181,9.096-20.277,20.277-20.277
				c0.829,0,1.5,0.671,1.5,1.5s-0.671,1.5-1.5,1.5c-9.527,0-17.277,7.75-17.277,17.277C31.723,36.217,31.051,36.889,30.223,36.889z"
				/>
		</g>
		<g>
			<path style="fill:#020000;" d="M50,96.5c-7.235,0-13.121-4.262-13.121-9.5c0-0.828,0.671-1.5,1.5-1.5c0.829,0,1.5,0.672,1.5,1.5
				c0,3.523,4.635,6.5,10.121,6.5c5.487,0,10.122-2.977,10.122-6.5c0-0.828,0.671-1.5,1.5-1.5c0.829,0,1.5,0.672,1.5,1.5
				C63.122,92.327,57.358,96.5,50,96.5z"/>
		</g>
	</g>
</g>
<script  type="text/javascript">
    <![CDATA[
         var c=window.location.search.split('color=')[1]; c=parseInt(c,16); if(!isNaN(c)){c=c.toString(16);var p=document.getElementsByTagName('path');for(var i=0,l=p.length;i<l;i++){var s=p[i].style;s.fill='#'+c;} var p2=document.getElementsByTagName('polygon');for(var i=0,l=p2.length;i<l;i++){var s=p2[i].style;s.fill='#'+c;} var p3=document.getElementsByTagName('circle');for(var i=0,l=p3.length;i<l;i++){var s=p3[i].style;s.fill='#'+c;} }
        ]]>
</script>
</svg>
