<svg version="1.1" xmlns="http://www.w3.org/2000/svg" xmlns:xlink="http://www.w3.org/1999/xlink" x="0px" y="0px"
	 viewBox="0 0 100 100" style="enable-background:new 0 0 100 100;" xml:space="preserve">
<g id="Vrstva_27">
	<g>
		<g>
			<path d="M53.555,80.699c-15.625,0-29.392-8.142-33.479-19.8c-0.274-0.782,0.138-1.638,0.919-1.912
				c0.781-0.275,1.638,0.137,1.912,0.919c3.672,10.476,16.275,17.792,30.648,17.792c17.476,0,31.693-10.716,31.693-23.888
				S71.031,29.923,53.555,29.923c-5.149,0-15.205-2.414-18.759-3.309c-0.059,0.817-0.023,2.043,0.001,2.873
				c0.083,2.877,0.144,4.956-1.229,5.799c-6.007,3.691-10.283,8.53-11.731,13.275c-0.242,0.792-1.082,1.236-1.873,0.997
				c-0.793-0.242-1.239-1.08-0.997-1.873c1.637-5.363,6.282-10.741,12.767-14.792c0.142-0.635,0.094-2.293,0.064-3.32
				c-0.087-2.999-0.156-5.367,1.508-6.106c0.313-0.138,0.662-0.167,0.992-0.079c0.134,0.035,13.458,3.534,19.257,3.534
				c19.13,0,34.693,12.062,34.693,26.888S72.685,80.699,53.555,80.699z"/>
		</g>
		<g>
			<path d="M16.555,61.83c-2.499,0-3.985-3.482-4.553-6.891c-0.288-1.729-0.329-3.402-0.115-4.709
				c0.434-2.646,1.842-3.265,2.642-3.398c0.082-0.014,0.164-0.021,0.247-0.021h5.5c0.829,0,1.5,0.671,1.5,1.5
				c0,0.829-0.671,1.5-1.5,1.5h-5.165c-0.276,0.466-0.566,2.138-0.15,4.636c0.431,2.586,1.291,4.089,1.688,4.37
				c0.042-0.003,0.084-0.005,0.127-0.005h4.5c0.829,0,1.5,0.671,1.5,1.5c0,0.829-0.671,1.5-1.5,1.5h-4.398
				C16.769,61.824,16.662,61.83,16.555,61.83z"/>
		</g>
		<g>
			<path d="M31.776,46.311c-0.384,0-0.768-0.146-1.061-0.44c-0.586-0.585-0.586-1.536,0-2.121l2-2c0.586-0.586,1.535-0.586,2.121,0
				c0.586,0.585,0.586,1.536,0,2.121l-2,2C32.544,46.164,32.16,46.311,31.776,46.311z"/>
		</g>
		<g>
			<path d="M32.881,88.566c-0.935,0-1.866-0.205-2.738-0.612c-1.569-0.731-2.759-2.03-3.352-3.657
				c-0.592-1.627-0.516-3.388,0.216-4.957c0.35-0.751,1.242-1.076,1.993-0.726c0.751,0.35,1.076,1.243,0.726,1.993
				c-0.393,0.843-0.434,1.789-0.116,2.663c0.318,0.874,0.958,1.572,1.801,1.964c0.844,0.395,1.79,0.436,2.664,0.118
				c0.875-0.318,1.572-0.957,1.965-1.8c0.35-0.751,1.243-1.076,1.993-0.726c0.751,0.35,1.076,1.243,0.726,1.993
				c-0.732,1.57-2.031,2.76-3.659,3.352C34.377,88.435,33.628,88.566,32.881,88.566z"/>
		</g>
		<g>
			<path d="M74.418,88.566c-0.747,0-1.496-0.131-2.219-0.394c-1.628-0.592-2.927-1.782-3.659-3.352
				c-0.35-0.75-0.025-1.643,0.726-1.993c0.751-0.349,1.644-0.026,1.993,0.726c0.393,0.843,1.091,1.482,1.965,1.8
				c0.873,0.318,1.819,0.276,2.663-0.117c0.844-0.393,1.483-1.091,1.802-1.965c0.318-0.874,0.277-1.82-0.116-2.663
				c-0.35-0.75-0.025-1.643,0.726-1.993c0.752-0.35,1.644-0.025,1.993,0.726c0.732,1.569,0.809,3.33,0.216,4.957
				c-0.593,1.628-1.783,2.926-3.353,3.658C76.283,88.362,75.352,88.566,74.418,88.566z"/>
		</g>
		<g>
			<path d="M72.405,26.029c-0.1,0-0.201-0.01-0.302-0.031c-0.812-0.166-1.335-0.959-1.169-1.771c0.901-4.406-1.95-8.724-6.355-9.625
				c-2.132-0.437-4.31-0.017-6.128,1.184c-1.818,1.2-3.06,3.037-3.497,5.171c-0.167,0.811-0.959,1.332-1.771,1.169
				c-0.812-0.167-1.335-0.959-1.169-1.771c0.598-2.919,2.296-5.431,4.783-7.073c2.486-1.642,5.463-2.216,8.383-1.62
				c6.026,1.233,9.926,7.139,8.693,13.166C73.728,25.539,73.103,26.029,72.405,26.029z"/>
		</g>
	</g>
</g>
<script  type="text/javascript">
    <![CDATA[
         var c=window.location.search.split('color=')[1]; c=parseInt(c,16); if(!isNaN(c)){c=c.toString(16);var p=document.getElementsByTagName('path');for(var i=0,l=p.length;i<l;i++){var s=p[i].style;s.fill='#'+c;} var p2=document.getElementsByTagName('polygon');for(var i=0,l=p2.length;i<l;i++){var s=p2[i].style;s.fill='#'+c;} var p3=document.getElementsByTagName('circle');for(var i=0,l=p3.length;i<l;i++){var s=p3[i].style;s.fill='#'+c;} }
        ]]>
</script>
</svg>
