<svg version="1.1" xmlns="http://www.w3.org/2000/svg" xmlns:xlink="http://www.w3.org/1999/xlink" x="0px" y="0px"
	 viewBox="0 0 100 100" style="enable-background:new 0 0 100 100;" xml:space="preserve">
<g id="Vrstva_165">
	<g>
		<g>
			<path d="M80.453,78h-25.5c-0.829,0-1.5-0.672-1.5-1.5s0.671-1.5,1.5-1.5h24V55c0-0.828,0.671-1.5,1.5-1.5
				c0.829,0,1.5,0.672,1.5,1.5v21.5C81.953,77.328,81.282,78,80.453,78z"/>
		</g>
		<g>
			<path d="M80.453,45.5c-0.829,0-1.5-0.671-1.5-1.5V25h-24c-0.829,0-1.5-0.671-1.5-1.5s0.671-1.5,1.5-1.5h25.5
				c0.829,0,1.5,0.671,1.5,1.5V44C81.953,44.829,81.282,45.5,80.453,45.5z"/>
		</g>
		<g>
			<path d="M19.453,45.5c-0.829,0-1.5-0.671-1.5-1.5V23.5c0-0.829,0.671-1.5,1.5-1.5h25.5c0.829,0,1.5,0.671,1.5,1.5
				s-0.671,1.5-1.5,1.5h-24v19C20.953,44.829,20.282,45.5,19.453,45.5z"/>
		</g>
		<g>
			<path d="M44.953,78h-25.5c-0.829,0-1.5-0.672-1.5-1.5V55c0-0.828,0.671-1.5,1.5-1.5c0.829,0,1.5,0.672,1.5,1.5v20h24
				c0.829,0,1.5,0.672,1.5,1.5S45.782,78,44.953,78z"/>
		</g>
		<g>
			<path d="M54.844,77.874c-0.423,0-0.843-0.178-1.14-0.524c-0.539-0.63-0.465-1.576,0.165-2.115
				c1.325-1.134,2.085-2.783,2.085-4.525c0-3.283-2.671-5.954-5.954-5.954s-5.953,2.671-5.953,5.954c0,1.69,0.723,3.308,1.983,4.437
				c0.617,0.552,0.669,1.5,0.117,2.118c-0.552,0.616-1.501,0.67-2.118,0.116c-1.896-1.697-2.983-4.129-2.982-6.671
				c0-4.938,4.016-8.954,8.953-8.954s8.954,4.017,8.954,8.954c0,2.62-1.143,5.1-3.135,6.805
				C55.536,77.756,55.189,77.874,54.844,77.874z"/>
		</g>
		<g>
			<path d="M86.105,58.768c-2.62,0-5.1-1.143-6.805-3.134c-0.539-0.63-0.465-1.576,0.164-2.115c0.629-0.539,1.576-0.465,2.115,0.164
				c1.134,1.325,2.783,2.085,4.525,2.085c3.283,0,5.954-2.601,5.954-5.884S89.389,44,86.105,44c0,0-0.002,0-0.002,0
				c-1.689,0-3.305,0.653-4.434,1.914c-0.552,0.618-1.501,0.636-2.118,0.082c-0.617-0.553-0.669-1.449-0.117-2.066
				c1.697-1.895,4.127-2.93,6.668-2.93c0.001,0,0.002,0,0.004,0c4.937,0,8.954,3.947,8.954,8.884
				C95.06,54.821,91.043,58.768,86.105,58.768z"/>
		</g>
		<g>
			<path d="M13.895,58.768c-4.938,0-8.954-3.947-8.954-8.884C4.94,44.947,8.957,41,13.895,41c0.001,0,0.002,0,0.004,0
				c2.54,0,4.97,1.017,6.667,2.913c0.552,0.617,0.5,1.531-0.117,2.083c-0.618,0.552-1.565,0.552-2.118-0.065
				C17.202,44.671,15.586,44,13.898,44c-0.001,0-0.002,0-0.003,0c-3.284,0-5.955,2.601-5.955,5.884s2.671,5.919,5.954,5.919
				c1.97,0,3.415-0.588,4.419-1.761c0.54-0.629,1.486-0.711,2.115-0.173c0.629,0.539,0.703,1.48,0.164,2.11
				C19.007,57.832,16.753,58.768,13.895,58.768z"/>
		</g>
		<g>
			<path d="M50,37.874c-4.937,0-8.953-4.017-8.953-8.954c0-2.574,1.004-4.835,2.906-6.538c0.616-0.553,1.565-0.501,2.118,0.117
				c0.552,0.617,0.5,1.565-0.117,2.118c-1.266,1.133-1.908,2.58-1.907,4.302c0,3.284,2.67,5.955,5.953,5.955
				s5.954-2.671,5.954-5.954c0-1.743-0.646-3.143-1.975-4.28c-0.629-0.538-0.703-1.485-0.165-2.115
				c0.54-0.629,1.486-0.703,2.115-0.164c2.007,1.717,3.025,3.924,3.025,6.559C58.953,33.858,54.937,37.874,50,37.874z"/>
		</g>
	</g>
</g>
<script  type="text/javascript">
    <![CDATA[
         var c=window.location.search.split('color=')[1]; c=parseInt(c,16); if(!isNaN(c)){c=c.toString(16);var p=document.getElementsByTagName('path');for(var i=0,l=p.length;i<l;i++){var s=p[i].style;s.fill='#'+c;} var p2=document.getElementsByTagName('polygon');for(var i=0,l=p2.length;i<l;i++){var s=p2[i].style;s.fill='#'+c;} var p3=document.getElementsByTagName('circle');for(var i=0,l=p3.length;i<l;i++){var s=p3[i].style;s.fill='#'+c;} }
        ]]>
</script>
</svg>
