<svg version="1.1" xmlns="http://www.w3.org/2000/svg" xmlns:xlink="http://www.w3.org/1999/xlink" x="0px" y="0px"
	 viewBox="0 0 100 100" style="enable-background:new 0 0 100 100;" xml:space="preserve">
<g id="Vrstva_209">
	<g>
		<g>
			<g>
				<path d="M78,43.75H21c-0.829,0-1.5-0.672-1.5-1.5v-24c0-0.828,0.671-1.5,1.5-1.5h57c0.398,0,0.779,0.158,1.06,0.44l12,12
					c0.586,0.586,0.586,1.535,0,2.121l-12,12C78.779,43.592,78.398,43.75,78,43.75z M22.5,40.75h54.879l10.5-10.5l-10.5-10.5H22.5
					V40.75z"/>
			</g>
			<g>
				<path d="M77,75.75H22c-0.398,0-0.779-0.158-1.061-0.439l-12-12c-0.586-0.586-0.586-1.535,0-2.121l12-12
					c0.281-0.281,0.663-0.439,1.061-0.439h55c0.829,0,1.5,0.672,1.5,1.5v24C78.5,75.078,77.829,75.75,77,75.75z M22.621,72.75H75.5
					v-21H22.621l-10.5,10.5L22.621,72.75z"/>
			</g>
			<g>
				<path d="M54,18.25c-0.829,0-1.5-0.672-1.5-1.5v-6c0-0.828,0.671-1.5,1.5-1.5c0.829,0,1.5,0.672,1.5,1.5v6
					C55.5,17.578,54.829,18.25,54,18.25z"/>
			</g>
			<g>
				<path d="M44,18.25c-0.829,0-1.5-0.672-1.5-1.5v-6c0-0.828,0.671-1.5,1.5-1.5c0.829,0,1.5,0.672,1.5,1.5v6
					C45.5,17.578,44.829,18.25,44,18.25z"/>
			</g>
			<g>
				<path d="M54,96.25c-0.829,0-1.5-0.672-1.5-1.5v-20c0-0.828,0.671-1.5,1.5-1.5c0.829,0,1.5,0.672,1.5,1.5v20
					C55.5,95.578,54.829,96.25,54,96.25z"/>
			</g>
			<g>
				<path d="M44,96.25c-0.829,0-1.5-0.672-1.5-1.5v-20c0-0.828,0.671-1.5,1.5-1.5c0.829,0,1.5,0.672,1.5,1.5v20
					C45.5,95.578,44.829,96.25,44,96.25z"/>
			</g>
			<g>
				<path d="M54,11.75c-0.829,0-1.5-0.672-1.5-1.5c0-1.93-1.57-3.5-3.5-3.5c-1.93,0-3.5,1.57-3.5,3.5c0,0.828-0.671,1.5-1.5,1.5
					c-0.829,0-1.5-0.672-1.5-1.5c0-3.584,2.916-6.5,6.5-6.5c3.584,0,6.5,2.916,6.5,6.5C55.5,11.078,54.829,11.75,54,11.75z"/>
			</g>
		</g>
		<g>
			<path d="M47.5,31.75h-13c-0.829,0-1.5-0.672-1.5-1.5s0.671-1.5,1.5-1.5h13c0.829,0,1.5,0.672,1.5,1.5S48.329,31.75,47.5,31.75z"
				/>
		</g>
		<g>
			<path d="M70.5,31.75h-13c-0.829,0-1.5-0.672-1.5-1.5s0.671-1.5,1.5-1.5h13c0.829,0,1.5,0.672,1.5,1.5S71.329,31.75,70.5,31.75z"
				/>
		</g>
		<g>
			<path d="M47.331,65.256c-1.566,0-2.84-1.274-2.84-2.84c0-1.566,1.274-2.841,2.84-2.841c1.566,0,2.84,1.274,2.84,2.841
				C50.171,63.981,48.896,65.256,47.331,65.256z M47.331,62.256c-0.088,0-0.16,0.072-0.16,0.16c0,0.176,0.319,0.176,0.319,0
				C47.49,62.328,47.418,62.256,47.331,62.256z"/>
		</g>
		<g>
			<path d="M35.331,65.256c-1.566,0-2.84-1.274-2.84-2.84c0-1.566,1.274-2.841,2.84-2.841c1.566,0,2.84,1.274,2.84,2.841
				C38.171,63.981,36.896,65.256,35.331,65.256z M35.331,62.256c-0.088,0-0.16,0.072-0.16,0.16c0,0.176,0.319,0.176,0.319,0
				C35.49,62.328,35.418,62.256,35.331,62.256z"/>
		</g>
		<g>
			<path d="M59.331,65.256c-1.566,0-2.84-1.274-2.84-2.84c0-1.566,1.274-2.841,2.84-2.841c1.566,0,2.84,1.274,2.84,2.841
				C62.171,63.981,60.896,65.256,59.331,65.256z M59.331,62.256c-0.088,0-0.16,0.072-0.16,0.16c0,0.176,0.319,0.176,0.319,0
				C59.49,62.328,59.418,62.256,59.331,62.256z"/>
		</g>
	</g>
</g>
<script  type="text/javascript">
    <![CDATA[
         var c=window.location.search.split('color=')[1]; c=parseInt(c,16); if(!isNaN(c)){c=c.toString(16);var p=document.getElementsByTagName('path');for(var i=0,l=p.length;i<l;i++){var s=p[i].style;s.fill='#'+c;} var p2=document.getElementsByTagName('polygon');for(var i=0,l=p2.length;i<l;i++){var s=p2[i].style;s.fill='#'+c;} var p3=document.getElementsByTagName('circle');for(var i=0,l=p3.length;i<l;i++){var s=p3[i].style;s.fill='#'+c;} }
        ]]>
</script>
</svg>
