<svg version="1.1" xmlns="http://www.w3.org/2000/svg" xmlns:xlink="http://www.w3.org/1999/xlink" x="0px" y="0px"
	 viewBox="0 0 100 100" style="enable-background:new 0 0 100 100;" xml:space="preserve">
<g id="Vrstva_157">
	<g>
		<g>
			<path d="M82.329,79.32c-0.347,0-0.694-0.119-0.979-0.363c-0.627-0.541-0.697-1.488-0.157-2.116
				c5.981-6.942,9.471-15.713,9.914-24.845H73.131c-0.173,7.362-1.308,14.66-3.376,21.716c-0.232,0.796-1.065,1.251-1.861,1.018
				c-0.795-0.233-1.251-1.066-1.018-1.861c2.13-7.264,3.232-14.794,3.277-22.381c0.005-0.825,0.675-1.491,1.5-1.491h21
				c0.4,0,0.785,0.16,1.066,0.445c0.282,0.285,0.438,0.671,0.434,1.072c-0.119,10.379-3.915,20.425-10.687,28.286
				C83.17,79.143,82.751,79.32,82.329,79.32z"/>
		</g>
		<g>
			<path d="M92.666,51.497c-0.828,0-1.5-0.672-1.5-1.5c0-9.482-3.283-18.673-9.269-26.006c-3.725,1.562-7.652,2.844-11.71,3.821
				c1.978,7.241,2.979,14.696,2.979,22.185c0,0.828-0.672,1.5-1.5,1.5s-1.5-0.672-1.5-1.5c0-7.73-1.106-15.426-3.29-22.871
				c-0.117-0.399-0.063-0.828,0.148-1.187c0.212-0.358,0.562-0.611,0.969-0.7c4.798-1.055,9.419-2.549,13.735-4.44
				c0.6-0.263,1.308-0.103,1.738,0.395c6.899,8.009,10.699,18.237,10.699,28.803C94.166,50.825,93.494,51.497,92.666,51.497z"/>
		</g>
		<g>
			<path d="M17.67,79.32c-0.422,0-0.841-0.177-1.138-0.521C9.634,70.789,5.834,60.56,5.834,49.997s3.8-20.792,10.698-28.802
				c0.541-0.628,1.488-0.698,2.115-0.158c0.628,0.541,0.698,1.488,0.158,2.115c-6.431,7.466-9.972,16.999-9.972,26.845
				s3.541,19.379,9.972,26.845c0.54,0.627,0.47,1.574-0.158,2.115C18.364,79.201,18.017,79.32,17.67,79.32z"/>
		</g>
		<g>
			<path d="M31.686,28.204c-0.106,0-0.215-0.011-0.323-0.035c-4.99-1.097-9.8-2.651-14.295-4.621
				c-0.759-0.332-1.104-1.217-0.772-1.976c0.333-0.759,1.22-1.106,1.976-0.773c4.316,1.891,8.938,3.385,13.736,4.44
				c0.809,0.178,1.32,0.977,1.143,1.787C32.995,27.726,32.375,28.204,31.686,28.204z"/>
		</g>
		<g>
			<path d="M27.721,51.996h-20c-0.828,0-1.5-0.672-1.5-1.5c0-0.828,0.672-1.5,1.5-1.5h20c0.828,0,1.5,0.672,1.5,1.5
				C29.221,51.324,28.549,51.996,27.721,51.996z"/>
		</g>
		<g>
			<path d="M50.721,51.996H28.347c-0.825,0-1.495-0.666-1.5-1.491c-0.028-0.209-0.044-0.358-0.044-0.508
				c0-8.087,1.137-16.066,3.38-23.715c0.222-0.757,0.988-1.219,1.762-1.043c5.804,1.275,11.831,1.923,17.912,1.924
				c0.041-0.003,0.081-0.004,0.114-0.004c0.828,0,1.5,0.672,1.5,1.5c0,0.821-0.66,1.488-1.48,1.5
				c-0.042,0.003-0.082,0.004-0.116,0.004c-5.823,0-11.599-0.572-17.192-1.702c-1.824,6.65-2.79,13.546-2.874,20.535h20.912
				c0.828,0,1.5,0.672,1.5,1.5C52.221,51.324,51.549,51.996,50.721,51.996z"/>
		</g>
		<g>
			<path d="M31.684,74.914c-0.652,0-1.248-0.428-1.439-1.078c-2.209-7.533-3.352-15.425-3.398-23.207
				c-0.005-0.828,0.663-1.634,1.491-1.634c0.003,0,0.006,0,0.009,0c0.824,0,1.495,0.791,1.5,1.616
				c0.042,7.148,0.991,14.069,2.897,20.983c5.327-1.084,10.69-1.61,15.977-1.692V50.996c0-0.828,0.672-1.5,1.5-1.5
				c0.828,0,1.5,0.672,1.5,1.5v20.339c0,0.709-0.492,1.303-1.153,1.46c-0.127,0.044-0.326,0.099-0.567,0.099
				c-5.94,0-11.994,0.668-17.993,1.986C31.898,74.904,31.79,74.914,31.684,74.914z"/>
		</g>
		<g>
			<path d="M71.721,51.996h-21.5c-0.828,0-1.5-0.672-1.5-1.5V28.659c0-0.827,0.669-1.498,1.496-1.5
				c6.089-0.015,12.082-0.661,17.81-1.92c0.811-0.183,1.609,0.334,1.787,1.142c0.178,0.81-0.334,1.609-1.143,1.787
				c-5.468,1.202-11.163,1.864-16.951,1.975v18.853h20c0.828,0,1.5,0.672,1.5,1.5C73.221,51.324,72.549,51.996,71.721,51.996z"/>
		</g>
		<g>
			<path d="M82.331,23.673c-0.422,0-0.841-0.177-1.138-0.521c-5.555-6.449-12.813-10.96-20.992-13.046
				c-0.803-0.204-1.287-1.021-1.082-1.824c0.204-0.803,1.018-1.289,1.824-1.082c8.776,2.237,16.565,7.077,22.523,13.995
				c0.54,0.627,0.47,1.574-0.158,2.115C83.025,23.554,82.678,23.673,82.331,23.673z"/>
		</g>
		<g>
			<path d="M68.314,28.204c-0.648,0-1.247-0.424-1.438-1.078c-1.81-6.173-4.368-12.135-7.602-17.721
				c-0.415-0.718-0.171-1.635,0.546-2.05c0.719-0.415,1.634-0.17,2.05,0.546c3.355,5.794,6.007,11.978,7.885,18.381
				c0.233,0.795-0.223,1.628-1.018,1.861C68.597,28.184,68.454,28.204,68.314,28.204z"/>
		</g>
		<g>
			<path d="M17.668,23.673c-0.347,0-0.694-0.119-0.978-0.363c-0.628-0.541-0.698-1.488-0.158-2.115
				C22.49,14.277,30.278,9.438,39.056,7.2c0.807-0.207,1.62,0.279,1.824,1.082c0.205,0.803-0.279,1.62-1.082,1.824
				c-8.179,2.086-15.438,6.598-20.992,13.046C18.509,23.497,18.09,23.673,17.668,23.673z"/>
		</g>
		<g>
			<path d="M31.686,28.204c-0.14,0-0.282-0.02-0.423-0.06c-0.795-0.233-1.251-1.066-1.018-1.861
				c1.877-6.402,4.529-12.586,7.884-18.38c0.414-0.717,1.335-0.962,2.049-0.547c0.718,0.415,0.962,1.332,0.547,2.049
				c-3.233,5.588-5.791,11.55-7.601,17.722C32.933,27.78,32.334,28.204,31.686,28.204z"/>
		</g>
		<g>
			<path d="M39.426,10.153c-0.67,0-1.279-0.451-1.452-1.129c-0.205-0.804,0.279-1.62,1.082-1.824c7.125-1.816,14.765-1.816,21.888,0
				c0.803,0.204,1.287,1.022,1.082,1.824c-0.205,0.802-1.021,1.29-1.824,1.082c-6.637-1.691-13.765-1.691-20.403,0
				C39.673,10.138,39.548,10.153,39.426,10.153z"/>
		</g>
		<g>
			<path d="M50.221,30.496c-0.828,0-1.5-0.672-1.5-1.5v-20c0-0.828,0.672-1.5,1.5-1.5c0.828,0,1.5,0.672,1.5,1.5v20
				C51.721,29.824,51.049,30.496,50.221,30.496z"/>
		</g>
		<g>
			<path d="M60.571,92.84c-0.67,0-1.279-0.451-1.452-1.129c-0.205-0.803,0.279-1.62,1.082-1.824
				c8.179-2.086,15.438-6.597,20.992-13.046c0.541-0.627,1.488-0.698,2.115-0.158c0.628,0.541,0.698,1.488,0.158,2.115
				c-5.958,6.918-13.747,11.758-22.523,13.995C60.818,92.826,60.693,92.84,60.571,92.84z"/>
		</g>
		<g>
			<path d="M60.571,92.84c-0.256,0-0.514-0.064-0.751-0.202c-0.717-0.415-0.961-1.332-0.546-2.05
				c3.233-5.586,5.792-11.548,7.602-17.721c0.222-0.757,0.988-1.22,1.762-1.043c4.989,1.097,9.798,2.651,14.294,4.621
				c0.759,0.332,1.104,1.217,0.772,1.976c-0.333,0.76-1.219,1.105-1.976,0.772c-3.909-1.713-8.069-3.1-12.383-4.129
				c-1.847,5.921-4.358,11.643-7.476,17.027C61.593,92.572,61.089,92.84,60.571,92.84z"/>
		</g>
		<g>
			<path d="M39.428,92.84c-0.123,0-0.247-0.015-0.372-0.047c-8.777-2.238-16.566-7.077-22.524-13.995
				c-0.54-0.627-0.47-1.574,0.158-2.115c0.627-0.541,1.573-0.47,2.115,0.158c5.555,6.448,12.813,10.96,20.992,13.046
				c0.803,0.204,1.287,1.021,1.082,1.824C40.707,92.389,40.097,92.84,39.428,92.84z"/>
		</g>
		<g>
			<path d="M39.428,92.84c-0.518,0-1.022-0.269-1.299-0.749c-3.117-5.385-5.629-11.106-7.475-17.026
				c-4.315,1.029-8.475,2.416-12.384,4.129c-0.756,0.333-1.643-0.013-1.976-0.772c-0.332-0.759,0.014-1.644,0.772-1.976
				c4.495-1.97,9.305-3.524,14.295-4.621c0.775-0.173,1.541,0.287,1.762,1.043c1.81,6.172,4.367,12.134,7.601,17.722
				c0.415,0.717,0.171,1.634-0.547,2.049C39.941,92.776,39.684,92.84,39.428,92.84z"/>
		</g>
		<g>
			<path d="M50,94.163c-3.7,0-7.382-0.461-10.944-1.369c-0.803-0.204-1.287-1.021-1.082-1.824c0.204-0.802,1.021-1.29,1.824-1.082
				c6.639,1.691,13.767,1.691,20.403,0c0.807-0.208,1.62,0.28,1.824,1.082c0.205,0.803-0.279,1.62-1.082,1.824
				C57.382,93.702,53.7,94.163,50,94.163z"/>
		</g>
		<g>
			<path d="M50.221,92.496c-0.828,0-1.5-0.672-1.5-1.5V71.335c0-0.399,0.158-0.7,0.44-0.982c0.281-0.281,0.662-0.357,1.06-0.357
				c0.001,0,0.003,0,0.004,0c6.892,0,12.914,0.531,18.413,1.74c0.809,0.178,1.32,0.938,1.143,1.747
				c-0.177,0.809-0.976,1.304-1.787,1.123c-4.886-1.073-10.223-1.665-16.272-1.758v18.147
				C51.721,91.824,51.049,92.496,50.221,92.496z"/>
		</g>
	</g>
</g>
<script  type="text/javascript">
    <![CDATA[
         var c=window.location.search.split('color=')[1]; c=parseInt(c,16); if(!isNaN(c)){c=c.toString(16);var p=document.getElementsByTagName('path');for(var i=0,l=p.length;i<l;i++){var s=p[i].style;s.fill='#'+c;} var p2=document.getElementsByTagName('polygon');for(var i=0,l=p2.length;i<l;i++){var s=p2[i].style;s.fill='#'+c;} var p3=document.getElementsByTagName('circle');for(var i=0,l=p3.length;i<l;i++){var s=p3[i].style;s.fill='#'+c;} }
        ]]>
</script>
</svg>
